<svg fill="currentColor" width="25px" height="25px" style='display:inline-block;' xmlns="http://www.w3.org/2000/svg" xmlns:xlink="http://www.w3.org/1999/xlink" id="eLb8OXCvahI1" viewBox="0 0 467.374 467.374" shape-rendering="geometricPrecision" text-rendering="geometricPrecision" project-id="5de1ffe49cab43d18ac4245bd6693527" export-id="feb6f9edebf84b44ae75876670d16b0b" cached="false">
<style><![CDATA[
#eLb8OXCvahI1{pointer-events: all}span:hover #eLb8OXCvahI3 {animation: eLb8OXCvahI3_c_o 3000ms linear 1 normal forwards}@keyframes eLb8OXCvahI3_c_o { 0% {opacity: 1} 9.333333% {opacity: 0} 19.666667% {opacity: 1} 29% {opacity: 0} 38.666667% {opacity: 1} 100% {opacity: 1}} span:hover #eLb8OXCvahI4 {animation: eLb8OXCvahI4_c_o 3000ms linear 1 normal forwards}@keyframes eLb8OXCvahI4_c_o { 0% {opacity: 0} 9.333333% {opacity: 1} 19.666667% {opacity: 0} 29% {opacity: 1} 38.666667% {opacity: 0} 100% {opacity: 0}} span:hover #eLb8OXCvahI5 {animation: eLb8OXCvahI5_c_o 3000ms linear 1 normal forwards}@keyframes eLb8OXCvahI5_c_o { 0% {opacity: 1} 9.333333% {opacity: 0} 19.666667% {opacity: 1} 29% {opacity: 0} 38.666667% {opacity: 1} 100% {opacity: 1}} span:hover #eLb8OXCvahI6 {animation: eLb8OXCvahI6_c_o 3000ms linear 1 normal forwards}@keyframes eLb8OXCvahI6_c_o { 0% {opacity: 1} 9.333333% {opacity: 0} 19.666667% {opacity: 1} 29% {opacity: 0} 38.666667% {opacity: 1} 100% {opacity: 1}} span:hover #eLb8OXCvahI7 {animation: eLb8OXCvahI7_c_o 3000ms linear 1 normal forwards}@keyframes eLb8OXCvahI7_c_o { 0% {opacity: 0} 9.333333% {opacity: 1} 19.666667% {opacity: 0} 29% {opacity: 1} 38.666667% {opacity: 0} 100% {opacity: 0}} span:hover #eLb8OXCvahI9 {animation: eLb8OXCvahI9_c_o 3000ms linear 1 normal forwards}@keyframes eLb8OXCvahI9_c_o { 0% {opacity: 1} 9.333333% {opacity: 0} 19.666667% {opacity: 1} 29% {opacity: 0} 38.666667% {opacity: 1} 100% {opacity: 1}} span:hover #eLb8OXCvahI10 {animation: eLb8OXCvahI10_c_o 3000ms linear 1 normal forwards}@keyframes eLb8OXCvahI10_c_o { 0% {opacity: 1} 9.333333% {opacity: 0} 19.666667% {opacity: 1} 29% {opacity: 0} 38.666667% {opacity: 1} 100% {opacity: 1}} span:hover #eLb8OXCvahI11 {animation: eLb8OXCvahI11_c_o 3000ms linear 1 normal forwards}@keyframes eLb8OXCvahI11_c_o { 0% {opacity: 0} 9.333333% {opacity: 1} 19.666667% {opacity: 0} 29% {opacity: 1} 38.666667% {opacity: 0} 100% {opacity: 0}} span:hover #eLb8OXCvahI12 {animation: eLb8OXCvahI12_c_o 3000ms linear 1 normal forwards}@keyframes eLb8OXCvahI12_c_o { 0% {opacity: 0} 9.333333% {opacity: 1} 19.666667% {opacity: 0} 29% {opacity: 1} 38.666667% {opacity: 0} 100% {opacity: 0}} span:hover #eLb8OXCvahI13 {animation: eLb8OXCvahI13_c_o 3000ms linear 1 normal forwards}@keyframes eLb8OXCvahI13_c_o { 0% {opacity: 0} 9.333333% {opacity: 1} 19.666667% {opacity: 0} 29% {opacity: 1} 38.666667% {opacity: 0} 100% {opacity: 0}} span:hover #eLb8OXCvahI20_tr {animation: eLb8OXCvahI20_tr__tr 3000ms linear 1 normal forwards}@keyframes eLb8OXCvahI20_tr__tr { 0% {transform: translate(135.33781px,207.03926px) rotate(720deg);animation-timing-function: cubic-bezier(0.415,0.08,0.115,0.955)} 100% {transform: translate(135.33781px,207.03926px) rotate(439.480519deg)}} span:hover #eLb8OXCvahI21_tr {animation: eLb8OXCvahI21_tr__tr 3000ms linear 1 normal forwards}@keyframes eLb8OXCvahI21_tr__tr { 0% {transform: translate(11.12px,29.9px) rotate(-720deg);animation-timing-function: cubic-bezier(0.415,0.08,0.115,0.955)} 100% {transform: translate(11.12px,29.9px) rotate(-439.480519deg)}}
]]></style>
<defs><linearGradient id="eLb8OXCvahI14-fill" x1="0.5" y1="0" x2="0.5" y2="1" spreadMethod="pad" gradientUnits="objectBoundingBox" gradientTransform="translate(0 0)"><stop id="eLb8OXCvahI14-fill-0" offset="0%" stop-color="rgba(255,255,255,0)"/><stop id="eLb8OXCvahI14-fill-1" offset="100%" stop-color="#010022"/></linearGradient></defs><path d="M459.657,82.222c0-5.136-1.704-9.419-5.133-12.843L397.993,12.848c-3.425-3.427-7.706-5.14-12.847-5.14-5.144,0-9.421,1.713-12.847,5.14L5.14,380.005C1.709,383.434,0,387.719,0,392.858c0,5.141,1.709,9.418,5.14,12.847l56.529,56.527c3.431,3.429,7.708,5.141,12.85,5.141c5.137,0,9.419-1.704,12.847-5.141L454.528,95.072c3.425-3.43,5.129-7.708,5.129-12.85ZM332.038,165.877l-30.546-30.55l83.651-83.654l30.546,30.549-83.651,83.655Z"/><polygon id="eLb8OXCvahI3" points="65.384,73.087 73.948,45.109 101.925,36.545 73.948,27.979 65.384,0.001 56.818,27.979 28.84,36.545 56.818,45.109" transform="translate(-13.023506 6.753756)"/><polygon id="eLb8OXCvahI4" points="65.384,73.087 73.948,45.109 101.925,36.545 73.948,27.979 65.384,0.001 56.818,27.979 28.84,36.545 56.818,45.109" transform="translate(334.687602 264.433799)" opacity="0"/><polygon id="eLb8OXCvahI5" points="65.384,73.087 73.948,45.109 101.925,36.545 73.948,27.979 65.384,0.001 56.818,27.979 28.84,36.545 56.818,45.109" transform="translate(250.145606 279.745394)"/><polygon id="eLb8OXCvahI6" points="65.384,73.087 73.948,45.109 101.925,36.545 73.948,27.979 65.384,0.001 56.818,27.979 28.84,36.545 56.818,45.109" transform="translate(317.357125 352.831394)"/><polygon id="eLb8OXCvahI7" points="65.384,73.087 73.948,45.109 101.925,36.545 73.948,27.979 65.384,0.001 56.818,27.979 28.84,36.545 56.818,45.109" transform="translate(160.114088 361.826975)" opacity="0"/><polygon points="139.61,108.494 156.743,164.455 173.876,108.494 229.835,91.361 173.876,74.23 156.743,18.269 139.61,74.23 83.651,91.361" transform="translate(-30.159528 0)"/><polygon id="eLb8OXCvahI9" points="439.392,210.7 430.829,182.723 422.267,210.7 394.287,219.265 422.267,227.83 430.829,255.805 439.392,227.83 467.374,219.265" transform="translate(-22.872163-.566239)"/><polygon id="eLb8OXCvahI10" points="248.106,73.087 256.672,45.109 284.648,36.545 256.672,27.979 248.106,0.001 239.544,27.979 211.564,36.545 239.544,45.109" transform="translate(.566239 0)"/><polygon id="eLb8OXCvahI11" points="248.106,73.087 256.672,45.109 284.648,36.545 256.672,27.979 248.106,0.001 239.544,27.979 211.564,36.545 239.544,45.109" transform="translate(-29.602288 79.839756)" opacity="0"/><polygon id="eLb8OXCvahI12" points="248.106,73.087 256.672,45.109 284.648,36.545 256.672,27.979 248.106,0.001 239.544,27.979 211.564,36.545 239.544,45.109" transform="translate(-175.928628 145.610761)" opacity="0"/><polygon id="eLb8OXCvahI13" points="248.106,73.087 256.672,45.109 284.648,36.545 256.672,27.979 248.106,0.001 239.544,27.979 211.564,36.545 239.544,45.109" transform="translate(-205.901606 237.54)" opacity="0"/></svg>